<svg xmlns="http://www.w3.org/2000/svg" width="150" height="150" viewBox="0 0 150 150"><rect width="100%" height="100%" fill="#DDDDDD"/><path fill="#999999" d="M37.73 69.58h1.78v10.84h-1.03q-.24 0-.4-.08-.17-.08-.31-.26l-5.67-7.23q.05.49.05.91v6.66h-1.78V69.58h1.06q.12 0 .22.01.09.01.16.04.07.04.14.1.07.06.15.17l5.69 7.26-.04-.52q-.02-.26-.02-.47v-6.59ZM52.27 75q0 1.19-.39 2.21-.4 1.01-1.12 1.76-.72.74-1.73 1.15-1.01.42-2.25.42-1.23 0-2.24-.42-1.02-.41-1.74-1.15-.72-.75-1.12-1.76-.4-1.02-.4-2.21t.4-2.21q.4-1.02 1.12-1.76.72-.74 1.74-1.16 1.01-.41 2.24-.41.82 0 1.55.19.73.19 1.34.54.6.35 1.09.84.48.5.82 1.12.34.61.51 1.33.18.72.18 1.52Zm-2.06 0q0-.89-.24-1.6-.24-.71-.69-1.21-.44-.49-1.07-.75-.64-.27-1.43-.27-.8 0-1.43.27-.63.26-1.08.75-.45.5-.69 1.21-.24.71-.24 1.6 0 .89.24 1.6.24.71.69 1.2.45.49 1.08.75.63.27 1.43.27.79 0 1.43-.27.63-.26 1.07-.75.45-.49.69-1.2.24-.71.24-1.6Zm11.41-5.42v1.65h-3.27v9.19h-2.02v-9.19h-3.27v-1.65h8.56Zm11.91 1.6h-4.81v3.21h4.06V76h-4.06v4.42h-2.03V69.58h6.84v1.6ZM85.52 75q0 1.19-.39 2.21-.39 1.01-1.11 1.76-.72.74-1.74 1.15-1.01.42-2.25.42-1.23 0-2.24-.42-1.01-.41-1.73-1.15-.73-.75-1.13-1.76-.39-1.02-.39-2.21t.39-2.21q.4-1.02 1.13-1.76.72-.74 1.73-1.16 1.01-.41 2.24-.41.83 0 1.56.19.72.19 1.33.54.61.35 1.09.84.49.5.82 1.12.34.61.52 1.33.17.72.17 1.52Zm-2.06 0q0-.89-.24-1.6-.24-.71-.68-1.21-.44-.49-1.08-.75-.63-.27-1.43-.27-.79 0-1.42.27-.64.26-1.08.75-.45.5-.69 1.21-.24.71-.24 1.6 0 .89.24 1.6.24.71.69 1.2.44.49 1.08.75.63.27 1.42.27.8 0 1.43-.27.64-.26 1.08-.75.44-.49.68-1.2.24-.71.24-1.6Zm8.21 3.79q.58 0 1.04-.19.46-.2.78-.55.31-.35.48-.86.17-.5.17-1.12v-6.49h2.02v6.49q0 .97-.31 1.79-.31.82-.89 1.42-.59.59-1.42.93-.83.33-1.87.33-1.05 0-1.89-.33-.83-.34-1.41-.93-.58-.6-.89-1.42-.31-.82-.31-1.79v-6.49h2.01v6.48q0 .63.17 1.13.17.5.49.86.32.35.78.55.46.19 1.05.19Zm14.13-9.21h1.78v10.84h-1.03q-.24 0-.4-.08-.17-.08-.32-.26l-5.66-7.23q.05.49.05.91v6.66h-1.78V69.58h1.06q.12 0 .22.01.09.01.16.04.07.04.14.1.07.06.15.17l5.69 7.26q-.03-.26-.04-.52-.02-.26-.02-.47v-6.59ZM119.63 75q0 1.19-.4 2.19t-1.12 1.72q-.72.72-1.73 1.11-1.01.4-2.25.4H110V69.58h4.13q1.24 0 2.25.4t1.73 1.11q.72.72 1.12 1.72.4 1 .4 2.19Zm-2.07 0q0-.89-.24-1.6-.24-.71-.68-1.2-.45-.49-1.08-.76-.64-.26-1.43-.26h-2.11v7.64h2.11q.79 0 1.43-.27.63-.26 1.08-.75.44-.49.68-1.2.24-.71.24-1.6Z"/></svg>